<svg xmlns="http://www.w3.org/2000/svg" xmlns:xlink="http://www.w3.org/1999/xlink" width="500" zoomAndPan="magnify" viewBox="0 0 375 374.999991" height="500" preserveAspectRatio="xMidYMid meet" version="1.0"><defs><clipPath id="7d2e253aa3"><path d="M 48.058594 37.652344 L 327 37.652344 L 327 195.75 L 48.058594 195.75 Z M 48.058594 37.652344 " clip-rule="nonzero"/></clipPath><clipPath id="20d6dda32a"><path d="M 35.378906 173.796875 L 339.878906 173.796875 L 339.878906 337.296875 L 35.378906 337.296875 Z M 35.378906 173.796875 " clip-rule="nonzero"/></clipPath><clipPath id="8df1c28898"><path d="M 97.203125 90.261719 L 277.953125 90.261719 L 277.953125 192.929688 L 97.203125 192.929688 Z M 97.203125 90.261719 " clip-rule="nonzero"/></clipPath><clipPath id="72df56ddd2"><path d="M 89.007812 178.601562 L 286.257812 178.601562 L 286.257812 284.351562 L 89.007812 284.351562 Z M 89.007812 178.601562 " clip-rule="nonzero"/></clipPath></defs><g clip-path="url(#7d2e253aa3)"><path fill="#ffffff" d="M 326.855469 116.699219 C 326.851562 117.996094 326.820312 119.289062 326.753906 120.585938 C 326.6875 121.878906 326.59375 123.171875 326.464844 124.460938 C 326.335938 125.75 326.175781 127.035156 325.984375 128.316406 C 325.792969 129.597656 325.570312 130.875 325.316406 132.144531 C 325.0625 133.414062 324.777344 134.679688 324.460938 135.933594 C 324.144531 137.191406 323.796875 138.441406 323.421875 139.679688 C 323.042969 140.917969 322.636719 142.148438 322.199219 143.367188 C 321.761719 144.589844 321.292969 145.796875 320.796875 146.992188 C 320.300781 148.191406 319.777344 149.375 319.222656 150.546875 C 318.667969 151.714844 318.082031 152.871094 317.472656 154.015625 C 316.859375 155.15625 316.222656 156.285156 315.554688 157.394531 C 314.890625 158.507812 314.195312 159.601562 313.476562 160.679688 C 312.753906 161.753906 312.007812 162.8125 311.238281 163.855469 C 310.464844 164.894531 309.667969 165.914062 308.84375 166.917969 C 308.023438 167.917969 307.175781 168.898438 306.308594 169.859375 C 305.4375 170.820312 304.542969 171.757812 303.628906 172.671875 C 302.710938 173.589844 301.773438 174.484375 300.8125 175.351562 C 299.851562 176.222656 298.871094 177.070312 297.871094 177.890625 C 296.867188 178.714844 295.847656 179.511719 294.808594 180.285156 C 293.765625 181.054688 292.707031 181.800781 291.632812 182.523438 C 290.554688 183.242188 289.460938 183.9375 288.347656 184.601562 C 287.238281 185.269531 286.109375 185.90625 284.96875 186.519531 C 283.824219 187.128906 282.667969 187.714844 281.5 188.269531 C 280.328125 188.824219 279.144531 189.347656 277.945312 189.84375 C 276.75 190.339844 275.542969 190.808594 274.320312 191.246094 C 273.101562 191.683594 271.871094 192.089844 270.632812 192.46875 C 269.394531 192.84375 268.144531 193.191406 266.886719 193.507812 C 265.632812 193.824219 264.367188 194.109375 263.097656 194.363281 C 261.828125 194.617188 260.550781 194.839844 259.269531 195.03125 C 257.988281 195.222656 256.703125 195.382812 255.414062 195.511719 C 254.125 195.640625 252.832031 195.734375 251.539062 195.800781 C 250.242188 195.867188 248.949219 195.898438 247.652344 195.902344 L 127.355469 195.902344 C 126.0625 195.898438 124.765625 195.867188 123.472656 195.800781 C 122.179688 195.734375 120.886719 195.640625 119.597656 195.511719 C 118.308594 195.382812 117.023438 195.222656 115.742188 195.03125 C 114.460938 194.839844 113.183594 194.617188 111.914062 194.363281 C 110.640625 194.109375 109.378906 193.824219 108.121094 193.507812 C 106.867188 193.191406 105.617188 192.84375 104.378906 192.46875 C 103.136719 192.089844 101.910156 191.683594 100.6875 191.246094 C 99.46875 190.808594 98.261719 190.339844 97.0625 189.84375 C 95.867188 189.347656 94.683594 188.824219 93.511719 188.269531 C 92.339844 187.714844 91.183594 187.128906 90.042969 186.519531 C 88.898438 185.90625 87.773438 185.269531 86.664062 184.601562 C 85.550781 183.9375 84.457031 183.242188 83.378906 182.523438 C 82.300781 181.800781 81.242188 181.054688 80.203125 180.285156 C 79.164062 179.511719 78.140625 178.714844 77.140625 177.890625 C 76.140625 177.070312 75.15625 176.222656 74.199219 175.351562 C 73.238281 174.484375 72.300781 173.589844 71.382812 172.671875 C 70.46875 171.757812 69.574219 170.820312 68.703125 169.859375 C 67.832031 168.898438 66.988281 167.917969 66.164062 166.917969 C 65.34375 165.914062 64.546875 164.894531 63.773438 163.855469 C 63 162.8125 62.253906 161.753906 61.535156 160.679688 C 60.816406 159.601562 60.121094 158.507812 59.457031 157.394531 C 58.789062 156.285156 58.148438 155.15625 57.539062 154.015625 C 56.925781 152.871094 56.34375 151.714844 55.789062 150.546875 C 55.234375 149.375 54.710938 148.191406 54.210938 146.992188 C 53.714844 145.796875 53.25 144.589844 52.8125 143.367188 C 52.375 142.148438 51.964844 140.917969 51.589844 139.679688 C 51.210938 138.441406 50.867188 137.191406 50.550781 135.933594 C 50.234375 134.679688 49.949219 133.414062 49.695312 132.144531 C 49.441406 130.875 49.21875 129.597656 49.027344 128.316406 C 48.835938 127.035156 48.675781 125.75 48.546875 124.460938 C 48.417969 123.171875 48.320312 121.878906 48.257812 120.585938 C 48.191406 119.289062 48.15625 117.996094 48.15625 116.699219 L 48.15625 37.5 L 247.652344 37.5 C 248.949219 37.5 250.246094 37.535156 251.539062 37.597656 C 252.832031 37.664062 254.125 37.761719 255.414062 37.890625 C 256.703125 38.019531 257.988281 38.175781 259.269531 38.367188 C 260.550781 38.558594 261.828125 38.78125 263.097656 39.035156 C 264.367188 39.289062 265.632812 39.574219 266.890625 39.890625 C 268.144531 40.207031 269.394531 40.554688 270.632812 40.929688 C 271.875 41.308594 273.101562 41.714844 274.324219 42.152344 C 275.542969 42.589844 276.75 43.058594 277.949219 43.554688 C 279.144531 44.050781 280.328125 44.574219 281.5 45.128906 C 282.671875 45.683594 283.828125 46.269531 284.96875 46.878906 C 286.113281 47.492188 287.238281 48.128906 288.351562 48.796875 C 289.460938 49.464844 290.554688 50.15625 291.632812 50.875 C 292.710938 51.597656 293.769531 52.34375 294.808594 53.113281 C 295.851562 53.886719 296.871094 54.683594 297.871094 55.507812 C 298.875 56.328125 299.855469 57.175781 300.816406 58.046875 C 301.773438 58.914062 302.710938 59.808594 303.628906 60.726562 C 304.546875 61.640625 305.4375 62.578125 306.308594 63.539062 C 307.179688 64.5 308.023438 65.480469 308.847656 66.480469 C 309.667969 67.484375 310.464844 68.503906 311.238281 69.542969 C 312.011719 70.585938 312.757812 71.644531 313.476562 72.722656 C 314.199219 73.796875 314.890625 74.894531 315.558594 76.003906 C 316.222656 77.113281 316.863281 78.242188 317.472656 79.382812 C 318.085938 80.527344 318.667969 81.683594 319.222656 82.855469 C 319.777344 84.027344 320.304688 85.210938 320.800781 86.40625 C 321.296875 87.601562 321.765625 88.8125 322.199219 90.03125 C 322.636719 91.25 323.046875 92.480469 323.421875 93.71875 C 323.800781 94.960938 324.144531 96.207031 324.460938 97.464844 C 324.777344 98.722656 325.0625 99.984375 325.316406 101.253906 C 325.570312 102.527344 325.792969 103.800781 325.984375 105.082031 C 326.175781 106.367188 326.335938 107.652344 326.464844 108.941406 C 326.59375 110.230469 326.691406 111.519531 326.753906 112.816406 C 326.820312 114.109375 326.851562 115.40625 326.855469 116.699219 Z M 69.5 58.847656 L 69.5 116.699219 C 69.5 118.59375 69.597656 120.484375 69.785156 122.367188 C 69.972656 124.253906 70.25 126.125 70.625 127.980469 C 70.996094 129.839844 71.457031 131.671875 72.007812 133.484375 C 72.558594 135.296875 73.195312 137.078125 73.921875 138.828125 C 74.648438 140.578125 75.457031 142.285156 76.351562 143.957031 C 77.246094 145.625 78.21875 147.25 79.273438 148.824219 C 80.324219 150.398438 81.453125 151.917969 82.652344 153.378906 C 83.855469 154.84375 85.125 156.246094 86.464844 157.585938 C 87.804688 158.925781 89.207031 160.195312 90.671875 161.398438 C 92.132812 162.597656 93.652344 163.726562 95.226562 164.777344 C 96.800781 165.832031 98.425781 166.804688 100.09375 167.699219 C 101.765625 168.59375 103.472656 169.402344 105.222656 170.128906 C 106.972656 170.855469 108.753906 171.492188 110.566406 172.042969 C 112.378906 172.59375 114.210938 173.054688 116.070312 173.425781 C 117.925781 173.796875 119.796875 174.078125 121.683594 174.265625 C 123.566406 174.453125 125.457031 174.550781 127.351562 174.550781 L 247.652344 174.550781 C 249.546875 174.550781 251.4375 174.457031 253.324219 174.273438 C 255.210938 174.085938 257.082031 173.808594 258.941406 173.441406 C 260.796875 173.070312 262.632812 172.609375 264.445312 172.058594 C 266.261719 171.511719 268.042969 170.871094 269.792969 170.148438 C 271.542969 169.421875 273.253906 168.613281 274.925781 167.71875 C 276.59375 166.828125 278.21875 165.855469 279.792969 164.800781 C 281.371094 163.75 282.890625 162.621094 284.355469 161.421875 C 285.820312 160.21875 287.222656 158.945312 288.558594 157.605469 C 289.898438 156.269531 291.171875 154.867188 292.375 153.402344 C 293.574219 151.9375 294.703125 150.417969 295.753906 148.839844 C 296.808594 147.265625 297.78125 145.640625 298.671875 143.972656 C 299.566406 142.300781 300.375 140.589844 301.101562 138.839844 C 301.828125 137.089844 302.464844 135.308594 303.015625 133.492188 C 303.5625 131.679688 304.023438 129.84375 304.394531 127.988281 C 304.761719 126.128906 305.039062 124.257812 305.226562 122.371094 C 305.410156 120.484375 305.503906 118.59375 305.503906 116.699219 C 305.503906 114.804688 305.410156 112.914062 305.226562 111.03125 C 305.039062 109.144531 304.761719 107.273438 304.394531 105.414062 C 304.023438 103.554688 303.5625 101.71875 303.015625 99.90625 C 302.464844 98.09375 301.828125 96.3125 301.101562 94.5625 C 300.375 92.8125 299.566406 91.101562 298.671875 89.429688 C 297.78125 87.757812 296.808594 86.136719 295.753906 84.558594 C 294.703125 82.984375 293.574219 81.464844 292.375 80 C 291.171875 78.535156 289.898438 77.132812 288.558594 75.792969 C 287.222656 74.453125 285.820312 73.183594 284.355469 71.980469 C 282.890625 70.777344 281.371094 69.652344 279.792969 68.597656 C 278.21875 67.546875 276.59375 66.574219 274.925781 65.679688 C 273.253906 64.785156 271.542969 63.976562 269.792969 63.253906 C 268.042969 62.527344 266.261719 61.890625 264.445312 61.339844 C 262.632812 60.789062 260.796875 60.332031 258.941406 59.960938 C 257.082031 59.589844 255.210938 59.3125 253.324219 59.128906 C 251.4375 58.941406 249.546875 58.847656 247.652344 58.847656 Z M 69.5 58.847656 " fill-opacity="1" fill-rule="nonzero"/></g><g clip-path="url(#20d6dda32a)"><path fill="#ffffff" d="M 317.273438 255.621094 C 317.273438 222.957031 290.695312 196.375 258.027344 196.375 L 116.96875 196.375 C 84.300781 196.375 57.726562 222.957031 57.726562 255.621094 C 57.726562 288.289062 84.300781 314.867188 116.96875 314.867188 L 258.027344 314.867188 C 290.695312 314.867188 317.273438 288.289062 317.273438 255.621094 Z M 35.15625 255.621094 C 35.15625 210.507812 71.855469 173.808594 116.96875 173.808594 L 258.027344 173.808594 C 303.140625 173.808594 339.84375 210.507812 339.84375 255.621094 C 339.84375 300.734375 303.140625 337.4375 258.027344 337.4375 L 116.96875 337.4375 C 71.855469 337.4375 35.15625 300.734375 35.15625 255.621094 " fill-opacity="1" fill-rule="nonzero"/></g><g clip-path="url(#8df1c28898)"><path fill="#ffffff" d="M 277.820312 141.59375 C 277.820312 143.273438 277.734375 144.953125 277.570312 146.625 C 277.402344 148.296875 277.152344 149.957031 276.824219 151.605469 C 276.496094 153.253906 276.085938 154.878906 275.597656 156.488281 C 275.109375 158.097656 274.539062 159.675781 273.898438 161.230469 C 273.253906 162.78125 272.535156 164.296875 271.742188 165.78125 C 270.949219 167.261719 270.085938 168.703125 269.148438 170.097656 C 268.214844 171.496094 267.214844 172.84375 266.148438 174.140625 C 265.082031 175.441406 263.957031 176.683594 262.765625 177.875 C 261.578125 179.0625 260.335938 180.1875 259.035156 181.253906 C 257.738281 182.320312 256.390625 183.324219 254.992188 184.257812 C 253.59375 185.191406 252.15625 186.054688 250.671875 186.847656 C 249.191406 187.640625 247.675781 188.359375 246.121094 189.003906 C 244.570312 189.648438 242.988281 190.214844 241.382812 190.703125 C 239.773438 191.191406 238.144531 191.601562 236.5 191.929688 C 234.851562 192.261719 233.191406 192.507812 231.519531 192.675781 C 229.84375 192.84375 228.167969 192.925781 226.488281 192.929688 L 148.519531 192.929688 C 146.835938 192.925781 145.160156 192.84375 143.488281 192.675781 C 141.816406 192.507812 140.15625 192.261719 138.507812 191.929688 C 136.859375 191.601562 135.230469 191.191406 133.625 190.703125 C 132.015625 190.214844 130.4375 189.648438 128.882812 189.003906 C 127.332031 188.359375 125.816406 187.640625 124.332031 186.847656 C 122.851562 186.054688 121.410156 185.191406 120.015625 184.257812 C 118.617188 183.324219 117.269531 182.320312 115.96875 181.253906 C 114.671875 180.1875 113.429688 179.0625 112.238281 177.875 C 111.050781 176.683594 109.921875 175.441406 108.855469 174.140625 C 107.789062 172.84375 106.789062 171.496094 105.855469 170.097656 C 104.921875 168.703125 104.058594 167.261719 103.265625 165.78125 C 102.472656 164.296875 101.753906 162.78125 101.109375 161.230469 C 100.464844 159.675781 99.898438 158.097656 99.410156 156.488281 C 98.921875 154.878906 98.511719 153.253906 98.183594 151.605469 C 97.851562 149.957031 97.605469 148.296875 97.4375 146.625 C 97.269531 144.953125 97.1875 143.273438 97.183594 141.59375 L 97.183594 90.261719 L 226.488281 90.261719 C 228.167969 90.261719 229.84375 90.347656 231.519531 90.511719 C 233.191406 90.679688 234.851562 90.929688 236.5 91.257812 C 238.148438 91.585938 239.773438 91.996094 241.382812 92.484375 C 242.992188 92.972656 244.570312 93.539062 246.121094 94.183594 C 247.675781 94.828125 249.191406 95.546875 250.675781 96.339844 C 252.15625 97.132812 253.597656 97.996094 254.992188 98.929688 C 256.390625 99.867188 257.738281 100.867188 259.039062 101.933594 C 260.335938 103 261.578125 104.125 262.769531 105.3125 C 263.957031 106.503906 265.085938 107.746094 266.152344 109.046875 C 267.21875 110.34375 268.21875 111.691406 269.152344 113.089844 C 270.085938 114.488281 270.949219 115.925781 271.742188 117.410156 C 272.535156 118.890625 273.253906 120.40625 273.898438 121.960938 C 274.542969 123.511719 275.109375 125.09375 275.597656 126.699219 C 276.085938 128.308594 276.496094 129.9375 276.824219 131.585938 C 277.15625 133.230469 277.402344 134.890625 277.570312 136.566406 C 277.734375 138.238281 277.820312 139.914062 277.820312 141.59375 Z M 111.019531 104.097656 L 111.019531 141.59375 C 111.019531 142.820312 111.082031 144.046875 111.203125 145.269531 C 111.324219 146.488281 111.503906 147.703125 111.746094 148.90625 C 111.988281 150.109375 112.285156 151.300781 112.644531 152.472656 C 113 153.648438 113.414062 154.800781 113.886719 155.9375 C 114.355469 157.070312 114.878906 158.179688 115.460938 159.261719 C 116.039062 160.34375 116.667969 161.394531 117.351562 162.414062 C 118.035156 163.433594 118.765625 164.417969 119.542969 165.367188 C 120.324219 166.316406 121.148438 167.226562 122.015625 168.09375 C 122.882812 168.960938 123.792969 169.785156 124.738281 170.5625 C 125.6875 171.34375 126.671875 172.074219 127.695312 172.757812 C 128.714844 173.4375 129.765625 174.070312 130.847656 174.648438 C 131.929688 175.226562 133.039062 175.753906 134.171875 176.222656 C 135.304688 176.695312 136.460938 177.109375 137.636719 177.464844 C 138.808594 177.824219 140 178.121094 141.203125 178.363281 C 142.40625 178.601562 143.617188 178.785156 144.839844 178.90625 C 146.0625 179.027344 147.285156 179.089844 148.515625 179.089844 L 226.488281 179.089844 C 227.714844 179.089844 228.941406 179.03125 230.164062 178.910156 C 231.386719 178.789062 232.597656 178.609375 233.804688 178.371094 C 235.007812 178.128906 236.199219 177.832031 237.371094 177.476562 C 238.546875 177.121094 239.703125 176.707031 240.835938 176.238281 C 241.972656 175.765625 243.082031 175.242188 244.164062 174.664062 C 245.246094 174.085938 246.296875 173.453125 247.320312 172.769531 C 248.339844 172.089844 249.324219 171.359375 250.273438 170.578125 C 251.226562 169.800781 252.132812 168.976562 253 168.109375 C 253.871094 167.238281 254.695312 166.332031 255.472656 165.382812 C 256.253906 164.433594 256.984375 163.449219 257.664062 162.425781 C 258.347656 161.40625 258.976562 160.351562 259.558594 159.269531 C 260.136719 158.1875 260.660156 157.078125 261.128906 155.945312 C 261.601562 154.808594 262.011719 153.652344 262.371094 152.480469 C 262.726562 151.304688 263.023438 150.113281 263.265625 148.910156 C 263.503906 147.707031 263.683594 146.492188 263.804688 145.269531 C 263.925781 144.046875 263.984375 142.824219 263.984375 141.59375 C 263.984375 140.367188 263.925781 139.140625 263.804688 137.917969 C 263.683594 136.695312 263.503906 135.484375 263.265625 134.28125 C 263.023438 133.074219 262.726562 131.886719 262.371094 130.710938 C 262.011719 129.535156 261.601562 128.378906 261.128906 127.246094 C 260.660156 126.109375 260.136719 125.003906 259.558594 123.917969 C 258.976562 122.835938 258.347656 121.785156 257.664062 120.761719 C 256.984375 119.742188 256.253906 118.757812 255.472656 117.808594 C 254.695312 116.859375 253.871094 115.949219 253 115.082031 C 252.132812 114.210938 251.226562 113.390625 250.273438 112.609375 C 249.324219 111.832031 248.339844 111.101562 247.320312 110.417969 C 246.296875 109.734375 245.246094 109.105469 244.164062 108.527344 C 243.082031 107.945312 241.972656 107.421875 240.835938 106.953125 C 239.703125 106.484375 238.546875 106.070312 237.371094 105.714844 C 236.199219 105.355469 235.007812 105.058594 233.804688 104.820312 C 232.597656 104.578125 231.386719 104.398438 230.164062 104.277344 C 228.941406 104.160156 227.714844 104.097656 226.488281 104.097656 Z M 111.019531 104.097656 " fill-opacity="1" fill-rule="nonzero"/></g><g clip-path="url(#72df56ddd2)"><path fill="#ffffff" d="M 271.605469 231.632812 C 271.605469 210.460938 254.378906 193.234375 233.207031 193.234375 L 141.785156 193.234375 C 120.613281 193.234375 103.386719 210.460938 103.386719 231.632812 C 103.386719 252.804688 120.613281 270.03125 141.785156 270.03125 L 233.207031 270.03125 C 254.378906 270.03125 271.605469 252.804688 271.605469 231.632812 Z M 88.761719 231.632812 C 88.761719 202.394531 112.546875 178.609375 141.785156 178.609375 L 233.207031 178.609375 C 262.445312 178.609375 286.234375 202.394531 286.234375 231.632812 C 286.234375 260.871094 262.445312 284.660156 233.207031 284.660156 L 141.785156 284.660156 C 112.546875 284.660156 88.761719 260.871094 88.761719 231.632812 " fill-opacity="1" fill-rule="nonzero"/></g></svg>